<svg xmlns="http://www.w3.org/2000/svg" width="60" height="60" viewBox="0 0 60 60">
    <g fill="none" fill-rule="evenodd">
        <rect width="60" height="60" rx="30"/>
        <path fill="#3B5998" d="M35.512 18.005L32.393 18c-3.503 0-5.768 2.319-5.768 5.907v2.723H23.49a.49.49 0 0 0-.49.489v3.947c0 .269.22.488.49.488h3.135v9.957c0 .27.22.489.491.489h4.09a.49.49 0 0 0 .49-.489v-9.957h3.666a.49.49 0 0 0 .49-.488l.003-3.947a.494.494 0 0 0-.491-.489h-3.667v-2.309c0-1.11.265-1.673 1.712-1.673h2.101a.49.49 0 0 0 .49-.49v-3.663a.49.49 0 0 0-.488-.49z"/>
    </g>
</svg>
